@startuml
title 基于GitHub的实验管理平台--类图
class users {
    <b>user_id</b> （用户ID）
    name （用户真实姓名）
    github_username （用户GitHub账号）
    update_date （用户GitHub账号修改日期）
    password （用户密码）
    disable （用户是否禁用）
}
class teachers{
    <b>teacher_id</b> （老师工号）
    department （老师所属部门）
}
class students{
    <b>student_id</b> （学号）
    class （班级）
    result_sum（成绩汇总）
    web_sum （网站正确与否汇总）
}
users <|- students
users <|-- teachers

class course_grades{
    <b>couser_id (课程编号)
    <b>student_id (学号)
    course_grades (课程成绩)
    course_remark (教师评语)
    course_date (评分日期)
}
class course{
    <b>course_id (课程编号)
    course_name (课程名称)
    course_content(课程介绍)
    course_term (开课学期)
}
class experiment{
    <b>course_id (课程号)
    <b。experiments_id （实验编号）
    experiment_name (实验名称)
    experiment_content (实验内容)
    experiment_deadline (实验截止日期)
}
class experiment_grades{
    <b>course_id (课程编号)
    <b>experiment_id (实验编号)
    student_id (学号)
    experiment_grades (实验成绩)
    expeiment_remark(对实验的评语)
    experiment_date(评分日期)
}
class details{
    <b>course_id (课程号)
    <b>experiment_id (实验编号)
    <b>detail_id (实验评分点编号)
    detail_name (实验评分点名称)
}
class details_grades{
    <b>course_id (课程编号)
    <b>experiment_id （实验编号）
    <b>detail_id (实验评分点编号)
    <b>student_id (学号)
    detail_grades(实验评分点成绩)
    detail_date (评分日期)
}

students "1" -- "n"  course_grades
course_grades "1" -- "n" experiment_grades
teachers "1" -- "n"  course
course   "1" -- "n"  course_grades
course   "1" -- "n" experiment
experiment "1" -- "n" experiment_grades
experiment_grades "1" -- "n" details_grades
experiment "1" -- "n" details
details "1" -- "n" details_grades




@enduml